<svg version="1.1" id="Layer_1" xmlns="http://www.w3.org/2000/svg" xmlns:xlink="http://www.w3.org/1999/xlink" x="0px" y="0px"
	 width="100%" viewBox="0 0 512 512" enable-background="new 0 0 512 512" xml:space="preserve">
<path fill="#000C1C" opacity="1.000000" stroke="none" 
	d="
M513.000000,1.500000 
	C512.690796,1.879036 512.431824,1.689514 512.111450,1.215716 
	C512.333313,1.000000 512.666687,1.000000 513.000000,1lo.500000 
z"/>
<path fill="#000C1C" opacity="1.000000" stroke="none" 
	d="
M1.000000,512.500000 
	C1.320641,512.104248 1.575718,512.295837 1.882615,512.787354 
	C1.666667,513.000000 1.333333,513.000000 1.000000,512.500000 
z"/>
<path fill="#F5B314" opacity="1.000000" stroke="none" 
	d="
M403.249420,85.258873 
	C410.136688,84.404152 416.582916,83.621559 423.024963,82.806328 
	C440.741302,80.564354 450.863464,97.701797 444.555359,112.892159 
	C405.801239,206.214355 367.408112,299.686462 328.879608,393.102356 
	C325.044922,402.399811 317.784241,407.247467 308.411560,406.921844 
	C299.345886,406.606873 292.312195,401.005066 289.266541,391.326843 
	C275.124817,346.388824 260.929138,301.466980 247.053635,256.446686 
	C244.503265,248.171829 240.154358,242.209351 232.758789,237.563721 
	C193.133698,212.672729 153.717453,187.449188 114.231491,162.336731 
	C102.994141,155.189926 99.432861,144.857941 104.589828,134.255768 
	C107.743271,127.772629 112.998390,123.954697 120.075867,122.995247 
	C154.561005,118.320312 189.058334,113.734871 223.555923,109.152199 
	C262.674438,103.955673 301.799408,98.808151 340.918335,93.614754 
	C361.551300,90.875534 382.177307,88.084023 403.249420,85.258873 
M357.225861,149.213913 
	C322.071655,153.861923 286.918579,158.518494 251.761703,163.146149 
	C247.782440,163.669937 244.045731,164.540466 243.017395,169.156601 
	C242.006149,173.695984 244.728622,176.177734 248.221405,178.373337 
	C261.471619,186.702591 274.763306,194.977371 287.758636,203.691376 
	C290.524414,205.545975 293.009766,208.853943 294.086426,212.015976 
	C299.181244,226.978561 303.783264,242.110184 308.465729,257.211090 
	C309.649750,261.029449 311.490112,263.939911 315.894592,264.069000 
	C320.072968,264.191498 322.009247,261.514801 323.451691,258.003632 
	C336.796722,225.519028 350.228973,193.070206 363.570770,160.584244 
	C366.022278,154.615021 364.412292,151.550888 357.225861,149.213913 
z"/>
<path fill="#FCFCFD" opacity="1.000000" stroke="none" 
	d="
M173.712463,259.245728 
	C139.626755,237.392334 105.836723,215.750854 72.100922,194.025162 
	C70.224518,192.816788 68.185883,191.195572 67.291832,189.270096 
	C65.623123,185.676331 68.044502,181.888947 72.297920,181.209488 
	C80.024818,179.975174 87.785591,178.890610 95.569443,178.118973 
	C97.511269,177.926468 99.874443,178.727631 101.572594,179.810944 
	C141.857758,205.510483 182.100464,231.277008 222.246201,257.193512 
	C224.267334,258.498291 226.016937,261.044220 226.767838,263.374725 
	C241.255569,308.339478 255.615784,353.345612 269.817963,398.401276 
	C270.589752,400.849762 270.389435,404.027832 269.537079,406.482849 
	C267.303680,412.915833 264.431396,419.125427 261.868622,425.446320 
	C260.602417,428.569275 258.965363,431.132446 255.053894,430.890594 
	C251.145294,430.648956 249.926437,427.828979 248.915176,424.656769 
	C234.969894,380.913025 220.646423,337.285034 207.261017,293.370972 
	C203.810333,282.050140 198.971085,273.291718 187.947403,268.220581 
	C183.004425,265.946655 178.644363,262.405609 173.712463,259.245728 
z"/>
<path fill="#132A3A" opacity="1.000000" stroke="none" 
	d="
M357.628601,149.229538 
	C364.412292,151.550888 366.022278,154.615021 363.570770,160.584244 
	C350.228973,193.070206 336.796722,225.519028 323.451691,258.003632 
	C322.009247,261.514801 320.072968,264.191498 315.894592,264.069000 
	C311.490112,263.939911 309.649750,261.029449 308.465729,257.211090 
	C303.783264,242.110184 299.181244,226.978561 294.086426,212.015976 
	C293.009766,208.853943 290.524414,205.545975 287.758636,203.691376 
	C274.763306,194.977371 261.471619,186.702591 248.221405,178.373337 
	C244.728622,176.177734 242.006149,173.695984 243.017395,169.156601 
	C244.045731,164.540466 247.782440,163.669937 251.761703,163.146149 
	C286.918579,158.518494 322.071655,153.861923 357.628601,149.229538 
z"/>
</svg>